<svg width="162" height="155" viewBox="0 0 162 155" fill="none" xmlns="http://www.w3.org/2000/svg">
<g clip-path="url(#clip0_155_584)">
<path d="M21.205 61.8304C18.0156 61.8304 15.1326 61.1403 12.5524 59.7601C9.97885 58.3734 7.9558 56.4495 6.48005 53.9919C5.01082 51.5374 4.27783 48.764 4.27783 45.6716C4.27783 42.5726 5.01082 39.7959 6.48005 37.3382C7.9558 34.8838 9.97885 32.9632 12.5524 31.583C15.1326 30.2028 18.0319 29.5127 21.2571 29.5127C23.9675 29.5127 26.4173 29.9912 28.6065 30.945C30.7957 31.8923 32.633 33.2594 34.1186 35.0465L29.4796 39.3304C27.3588 36.8923 24.7363 35.6715 21.6089 35.6715C19.6706 35.6715 17.9407 36.098 16.4226 36.9476C14.911 37.7907 13.7285 38.9723 12.8782 40.4893C12.0247 42.0094 11.6012 43.738 11.6012 45.6716C11.6012 47.6084 12.0247 49.3369 12.8782 50.8538C13.7285 52.3643 14.911 53.5459 16.4226 54.3955C17.9407 55.2484 19.6706 55.6716 21.6089 55.6716C24.7363 55.6716 27.3588 54.4346 29.4796 51.9606L34.1186 56.2575C32.633 58.0739 30.7859 59.4574 28.5804 60.4111C26.3717 61.3551 23.9154 61.8304 21.205 61.8304Z" fill="white"/>
<path d="M60.4836 61.8304C57.2324 61.8304 54.3069 61.1338 51.7008 59.7341C49.0946 58.3376 47.052 56.4105 45.5762 53.9528C44.107 51.4984 43.374 48.738 43.374 45.6716C43.374 42.6084 44.107 39.848 45.5762 37.3903C47.052 34.9359 49.0946 33.0088 51.7008 31.609C54.3069 30.2126 57.2324 29.5127 60.4836 29.5127C63.7315 29.5127 66.6504 30.2126 69.2403 31.609C71.827 33.0088 73.8663 34.9359 75.3518 37.3903C76.8439 39.848 77.5931 42.6084 77.5931 45.6716C77.5931 48.738 76.8439 51.4984 75.3518 53.9528C73.8663 56.4105 71.827 58.3376 69.2403 59.7341C66.6504 61.1338 63.7315 61.8304 60.4836 61.8304ZM60.4836 55.6716C62.334 55.6716 64.0019 55.2484 65.4874 54.3955C66.9795 53.5459 68.149 52.3643 68.9928 50.8538C69.843 49.3369 70.2698 47.6084 70.2698 45.6716C70.2698 43.738 69.843 42.0094 68.9928 40.4893C68.149 38.9723 66.9795 37.7907 65.4874 36.9476C64.0019 36.098 62.334 35.6715 60.4836 35.6715C58.6332 35.6715 56.9652 36.098 55.4797 36.9476C53.9942 37.7907 52.8247 38.9723 51.9744 40.4893C51.1209 42.0094 50.6974 43.738 50.6974 45.6716C50.6974 47.6084 51.1209 49.3369 51.9744 50.8538C52.8247 52.3643 53.9942 53.5459 55.4797 54.3955C56.9652 55.2484 58.6332 55.6716 60.4836 55.6716Z" fill="white"/>
<path d="M6.77588 79.6492H9.10841V99.6882H21.4747V101.706H6.77588V79.6492Z" fill="white"/>
<path d="M44.2315 95.808H31.9303L29.2851 101.706H26.8613L36.9472 79.6492H39.2537L49.3396 101.706H46.8898L44.2315 95.808ZM43.3845 93.92L38.0809 82.071L32.7904 93.92H43.3845Z" fill="white"/>
<path d="M71.9494 90.3263C73.3991 90.6485 74.5197 91.2768 75.3113 92.2143C76.0997 93.1453 76.4971 94.3432 76.4971 95.808C76.4971 97.7026 75.7967 99.1609 74.3992 100.183C72.9984 101.199 70.933 101.706 68.1965 101.706H58.0454V79.6492H67.571C70.0273 79.6492 71.9363 80.144 73.2915 81.1335C74.6468 82.1166 75.3244 83.5131 75.3244 85.3263C75.3244 86.5437 75.0247 87.5756 74.4252 88.4252C73.8258 89.2781 72.9984 89.9096 71.9494 90.3263ZM60.3779 81.5763V89.571H67.4146C69.1933 89.571 70.5681 89.2325 71.5324 88.5554C72.5032 87.8718 72.9918 86.8757 72.9918 85.5736C72.9918 84.2716 72.5032 83.282 71.5324 82.6049C70.5681 81.9213 69.1933 81.5763 67.4146 81.5763H60.3779ZM68.1704 99.7794C70.1413 99.7794 71.6301 99.4473 72.64 98.7768C73.6466 98.1095 74.1516 97.058 74.1516 95.6257C74.1516 92.8751 72.1579 91.4981 68.1704 91.4981H60.3779V99.7794H68.1704Z" fill="white"/>
<path d="M92.9503 101.902C91.3084 101.902 89.735 101.641 88.2332 101.121C86.7281 100.593 85.5683 99.8933 84.7539 99.0242L85.6661 97.2273C86.4642 98.0281 87.523 98.6726 88.8456 99.1674C90.1748 99.6622 91.543 99.9096 92.9503 99.9096C94.9213 99.9096 96.4035 99.5515 97.3939 98.8289C98.3842 98.0997 98.8794 97.1589 98.8794 96.0033C98.8794 95.1179 98.609 94.4148 98.0715 93.894C97.5307 93.3666 96.8726 92.963 96.0908 92.683C95.3154 92.3966 94.2404 92.0841 92.8591 91.7455C91.1912 91.3289 89.862 90.9252 88.8717 90.5346C87.8878 90.144 87.0473 89.5515 86.3437 88.7507C85.64 87.9532 85.2882 86.8725 85.2882 85.5085C85.2882 84.3985 85.5781 83.3861 86.1612 82.4747C86.7509 81.5567 87.6533 80.821 88.8717 80.2742C90.0966 79.7273 91.6114 79.4539 93.4194 79.4539C94.6769 79.4539 95.9116 79.6296 97.1202 79.9747C98.3353 80.323 99.3811 80.8048 100.261 81.42L99.4788 83.269C98.5471 82.6635 97.5568 82.2078 96.5078 81.9018C95.4555 81.599 94.4261 81.446 93.4194 81.446C91.4909 81.446 90.0347 81.8204 89.0541 82.5658C88.08 83.3145 87.5946 84.2716 87.5946 85.4434C87.5946 86.3289 87.8585 87.0417 88.3895 87.5789C88.927 88.1095 89.6014 88.5164 90.4093 88.8028C91.2172 89.0893 92.3053 89.3985 93.6801 89.7273C95.2959 90.1277 96.6022 90.5216 97.6024 90.9122C98.5992 91.3028 99.4462 91.8953 100.143 92.683C100.837 93.4643 101.186 94.5287 101.186 95.8731C101.186 96.9929 100.886 98.0085 100.287 98.92C99.6873 99.8315 98.7654 100.557 97.5242 101.094C96.2797 101.635 94.7551 101.902 92.9503 101.902Z" fill="white"/>
<path d="M98.0429 36.2583V39.6047H84.6341V36.9484L91.4753 30.4901C92.205 29.7967 92.6937 29.201 92.9478 28.7062C93.1986 28.2049 93.3257 27.7101 93.3257 27.2218C93.3257 26.5122 93.0814 25.9686 92.596 25.5942C92.1171 25.2134 91.4134 25.0213 90.485 25.0213C89.7096 25.0213 89.0125 25.1711 88.387 25.464C87.7615 25.7603 87.2337 26.203 86.8102 26.7922L83.8262 24.8651C84.5201 23.8332 85.4746 23.0259 86.693 22.4432C87.9081 21.8638 89.3024 21.5708 90.8759 21.5708C92.1855 21.5708 93.3387 21.7889 94.3291 22.2218C95.3194 22.6483 96.0882 23.257 96.6355 24.0448C97.1828 24.826 97.4565 25.7505 97.4565 26.8182C97.4565 27.7817 97.2512 28.6867 96.844 29.5265C96.4433 30.3696 95.6615 31.3332 94.4985 32.4172L90.4198 36.2583H98.0429Z" fill="white"/>
<path d="M7 0H14V17H7V0Z" fill="white"/>
<path d="M7 111H14V153H7V111Z" fill="white"/>
<path d="M14 0H161V7H14V0Z" fill="white"/>
<path d="M14 146H154V153H14V146Z" fill="white"/>
<path d="M154 7H161V153H154V7Z" fill="white"/>
</g>
<defs>
<clipPath id="clip0_155_584">
<rect width="162" height="155" fill="white"/>
</clipPath>
</defs>
</svg>
